<?xml version="1.0" encoding="utf-8"?>
<!-- Generator: Adobe Illustrator 24.2.3, SVG Export Plug-In . SVG Version: 6.00 Build 0)  -->
<svg version="1.1" id="Ebene_1" xmlns="http://www.w3.org/2000/svg" xmlns:xlink="http://www.w3.org/1999/xlink" x="0px" y="0px"
	 viewBox="0 0 490.4 165" style="enable-background:new 0 0 490.4 165;" xml:space="preserve">
<style type="text/css">
	.st0{fill:#A01441;}
	.st1{fill:#6F6F6F;}
	.st2{fill-rule:evenodd;clip-rule:evenodd;fill:#6F6F6F;}
</style>
<g>
	<path class="st0" d="M1,94.6c0-14.1,11.4-25.5,25.5-25.5S52,80.5,52,94.6s-11.4,25.5-25.5,25.5S1,108.7,1,94.6L1,94.6z"/>
	<path class="st1" d="M68.5,2.1v117.2h21.4V20c0,0,33.1,0,49,0v99.4h21.5V20c14.1,0,26.2,0,32.6,0c11,0,18.8,6.6,18.8,20.9v78.5
		h21.4c0-30.8,0-57.6,0-84.4c0-16-8.2-32.8-29.4-32.8L68.5,2.1L68.5,2.1z"/>
	<path class="st1" d="M276,2.1c-23.1,0-30.1,15.3-30.1,32.5c0,18.4,7.6,33.8,28.6,33.8c18.9,0,36.7,0,50.9,0
		c15.6,0,15.6,12,15.6,17.4c0,5.1,0,15.6-15.2,15.6c-12.1,0-77.9,0-77.9,0s0,12.9,0,17.9h86.9c21.7,0,27.9-12.7,27.9-33.3
		c0-24.5-8-35.4-26.5-35.4c-21.8,0-37.1,0-55,0c-13.9,0-13.9-9.4-13.9-15.6c0-4.9,1.4-15.1,16.2-15.1c15.6,0,75.1,0,75.1,0
		c0-7.2,0-11.1,0-17.8L276,2.1L276,2.1z"/>
	<path class="st2" d="M469.6,20v81.5h-44.9c-13.3,0.1-26.7,1-27.1-16.2c0-0.7-0.1-7,0-25.4c0.1-15.6-0.1-19.3,0-20.9
		c0.7-14.4,6-19.5,28-19C427,20,469.6,20,469.6,20L469.6,20z M491,2.1v127.7c0,16.7-6.4,25.6-26.3,25.6h-73.8v-18.8h66.9
		c10.1,0,11.8-3.9,11.9-12.7c0-0.9,0-4.5,0-4.5h-51.4c-20.2,0-26.8-3.2-30.8-6.1c-5.9-5-11.7-10.8-11.7-31.6V60.3v-21
		c0.1-19.7,5.3-25.4,11-30c5.2-4.2,12.3-7.2,31.4-7.2L491,2.1L491,2.1z"/>
	<g>
		<path d="M69.1,157.5H73c0.1,1.2,0.6,2.2,1.7,2.9s2.5,1.1,4.4,1.1c2.9,0,5-0.6,6.2-1.8c1.3-1.2,1.9-3.1,1.9-5.6v-1.8
			c-1.8,2.4-4.5,3.6-7.9,3.6c-3.2,0-5.9-0.9-8-2.7c-2-1.8-3.1-4.2-3.1-7.1c0-2.9,1-5.2,3-7s4.7-2.7,8-2.7c3.2,0,5.9,1.1,8.2,3.3
			l0.2-2.5h3.5c-0.1,1.8-0.2,3-0.2,3.6v12.9c0,3.8-1,6.5-2.9,8.1s-5,2.4-9.1,2.4c-3.2,0-5.7-0.5-7.3-1.6
			C70.1,161.4,69.2,159.8,69.1,157.5z M85.3,140.7c-1.3-1.2-3.2-1.8-5.5-1.8s-4.1,0.6-5.4,1.9c-1.3,1.2-2,3-2,5.2s0.6,4,1.9,5.3
			s3.2,1.9,5.6,1.9c2.3,0,4.2-0.6,5.5-1.9c1.3-1.3,2-3.1,2-5.3C87.3,143.7,86.6,141.9,85.3,140.7z"/>
		<path d="M131.6,156.1v-27.3h3.7v27.3H131.6z"/>
		<path d="M174.7,146.7c0-3.2,1-5.8,3.1-7.6s5-2.7,8.9-2.7s6.9,0.9,8.9,2.7s3,4.3,3,7.5c0,3.4-1.1,5.9-3.1,7.6s-4.9,2.6-8.5,2.6
			c-4.1,0-7.2-0.9-9.2-2.7C175.7,152.3,174.7,149.8,174.7,146.7z M178.6,146.6c0,2.4,0.7,4.2,2.2,5.6c1.5,1.4,3.4,2,5.8,2
			c2.4,0,4.4-0.7,5.8-2.1c1.4-1.4,2.1-3.2,2.1-5.6c0-2.3-0.7-4.1-2.2-5.5s-3.4-2.1-5.8-2.1c-2.4,0-4.3,0.7-5.8,2.1
			C179.4,142.4,178.6,144.2,178.6,146.6z"/>
		<path d="M237.2,156.1c0.1-1.7,0.2-3.2,0.2-4.3v-23h3.7v10.9c1.9-2.2,4.8-3.3,8.5-3.3c3,0,5.5,1,7.5,2.9c2,1.9,3,4.4,3,7.4
			c0,2.9-1,5.3-3.1,7.2c-2,1.9-4.6,2.9-7.6,2.9c-3.6,0-6.4-1.2-8.4-3.6l-0.2,2.9L237.2,156.1L237.2,156.1z M241.1,146.6
			c0,2.3,0.7,4.2,2.1,5.6c1.4,1.4,3.2,2,5.4,2s4.1-0.7,5.4-2c1.4-1.4,2.1-3.2,2.1-5.6c0-2.3-0.7-4.2-2.1-5.6
			c-1.4-1.4-3.2-2.1-5.4-2.1c-2.4,0-4.3,0.7-5.6,2.1C241.8,142.6,241.1,144.4,241.1,146.6z"/>
		<path d="M299.3,142c0.2-1.7,1.1-3.1,2.7-4.1s3.9-1.5,6.9-1.5c2.9,0,5.1,0.6,6.7,1.8s2.3,2.8,2.3,5v9.3c0,1.9,0,3.1,0.2,3.6h-3.5
			c-0.1-0.6-0.2-1.5-0.2-2.8c-0.6,0.9-1.5,1.7-2.7,2.4s-3.1,1.1-5.5,1.1s-4.4-0.6-5.9-1.7c-1.5-1.1-2.3-2.6-2.3-4.5
			c0-2.2,0.9-3.8,2.6-4.8s4.5-1.6,8.5-1.6h5.2v-0.7c0-3-1.9-4.5-5.8-4.5c-1.5,0-2.7,0.3-3.6,0.9c-0.9,0.6-1.4,1.3-1.5,2.2L299.3,142
			L299.3,142z M314.1,146.8h-2.3c-4.4,0-7.1,0.3-8.3,0.9c-1.2,0.6-1.7,1.5-1.7,2.9c0,0.9,0.4,1.8,1.3,2.6c0.9,0.7,2.2,1.1,3.9,1.1
			c2.4,0,4.1-0.5,5.3-1.6c1.2-1.1,1.8-2.7,1.8-4.9L314.1,146.8L314.1,146.8L314.1,146.8z"/>
		<path d="M358.3,156.1v-27.3h3.7v27.3H358.3z"/>
	</g>
</g>
</svg>
