<?xml version="1.0" encoding="UTF-8" standalone="no" ?>
<!DOCTYPE svg PUBLIC "-//W3C//DTD SVG 1.1//EN" "http://www.w3.org/Graphics/SVG/1.1/DTD/svg11.dtd">
<svg xmlns="http://www.w3.org/2000/svg" xmlns:xlink="http://www.w3.org/1999/xlink" version="1.1" width="1080" height="1080" viewBox="0 0 1080 1080" xml:space="preserve">
<desc>Created with Fabric.js 5.2.4</desc>
<defs>
</defs>
<g transform="matrix(1 0 0 1 540 540)" id="47d0504f-b99c-4d6d-b865-6b617764e009"  >
<rect style="stroke: none; stroke-width: 1; stroke-dasharray: none; stroke-linecap: butt; stroke-dashoffset: 0; stroke-linejoin: miter; stroke-miterlimit: 4; fill: rgb(255,255,255); fill-rule: nonzero; opacity: 1; visibility: hidden;" vector-effect="non-scaling-stroke"  x="-540" y="-540" rx="0" ry="0" width="1080" height="1080" />
</g>
<g transform="matrix(1 0 0 1 540 540)" id="3ab70c27-9c4e-46ba-8844-8eec1da2748d"  >
</g>
<g transform="matrix(1 0 0 1 540 540)"  >
<g style="" vector-effect="non-scaling-stroke"   >
		<g transform="matrix(1 0 0 1 -219.5 11.45)"  >
<path style="stroke: none; stroke-width: 1; stroke-dasharray: none; stroke-linecap: butt; stroke-dashoffset: 0; stroke-linejoin: miter; stroke-miterlimit: 4; fill: rgb(255,255,255); fill-rule: nonzero; opacity: 1;" vector-effect="non-scaling-stroke"  transform=" translate(-26.5, -94.6)" d="M 1 94.6 C 1 80.5 12.4 69.1 26.5 69.1 C 40.6 69.1 52 80.5 52 94.6 C 52 108.69999999999999 40.6 120.1 26.5 120.1 C 12.399999999999999 120.1 1 108.7 1 94.6 L 1 94.6 z" stroke-linecap="round" />
</g>
		<g transform="matrix(1 0 0 1 -95.15 -22.4)"  >
<path style="stroke: none; stroke-width: 1; stroke-dasharray: none; stroke-linecap: butt; stroke-dashoffset: 0; stroke-linejoin: miter; stroke-miterlimit: 4; fill: rgb(255,255,255); fill-rule: nonzero; opacity: 1;" vector-effect="non-scaling-stroke"  transform=" translate(-150.85, -60.75)" d="M 68.5 2.1 L 68.5 119.3 L 89.9 119.3 L 89.9 20 C 89.9 20 123 20 138.9 20 L 138.9 119.4 L 160.4 119.4 L 160.4 20 C 174.5 20 186.6 20 193 20 C 204 20 211.8 26.6 211.8 40.9 L 211.8 119.4 L 233.20000000000002 119.4 C 233.20000000000002 88.60000000000001 233.20000000000002 61.800000000000004 233.20000000000002 35 C 233.20000000000002 19 225.00000000000003 2.200000000000003 203.8 2.200000000000003 L 68.5 2.1 L 68.5 2.1 z" stroke-linecap="round" />
</g>
		<g transform="matrix(1 0 0 1 58.3 -22.45)"  >
<path style="stroke: none; stroke-width: 1; stroke-dasharray: none; stroke-linecap: butt; stroke-dashoffset: 0; stroke-linejoin: miter; stroke-miterlimit: 4; fill: rgb(255,255,255); fill-rule: nonzero; opacity: 1;" vector-effect="non-scaling-stroke"  transform=" translate(-304.3, -60.7)" d="M 276 2.1 C 252.9 2.1 245.9 17.400000000000002 245.9 34.6 C 245.9 53 253.5 68.4 274.5 68.4 C 293.4 68.4 311.2 68.4 325.4 68.4 C 341 68.4 341 80.4 341 85.80000000000001 C 341 90.9 341 101.4 325.8 101.4 C 313.7 101.4 247.9 101.4 247.9 101.4 C 247.9 101.4 247.9 114.30000000000001 247.9 119.30000000000001 L 334.8 119.30000000000001 C 356.5 119.30000000000001 362.7 106.60000000000001 362.7 86.00000000000001 C 362.7 61.500000000000014 354.7 50.600000000000016 336.2 50.600000000000016 C 314.4 50.600000000000016 299.09999999999997 50.600000000000016 281.2 50.600000000000016 C 267.3 50.600000000000016 267.3 41.20000000000002 267.3 35.000000000000014 C 267.3 30.100000000000016 268.7 19.900000000000013 283.5 19.900000000000013 C 299.1 19.900000000000013 358.6 19.900000000000013 358.6 19.900000000000013 C 358.6 12.700000000000014 358.6 8.800000000000013 358.6 2.100000000000012 L 276 2.1 L 276 2.1 z" stroke-linecap="round" />
</g>
		<g transform="matrix(1 0 0 1 187.4 -4.4)"  >
<path style="stroke: none; stroke-width: 1; stroke-dasharray: none; stroke-linecap: butt; stroke-dashoffset: 0; stroke-linejoin: miter; stroke-miterlimit: 4; fill: rgb(255,255,255); fill-rule: evenodd; opacity: 1;" vector-effect="non-scaling-stroke"  transform=" translate(-433.4, -78.75)" d="M 469.6 20 L 469.6 101.5 L 424.70000000000005 101.5 C 411.40000000000003 101.6 398.00000000000006 102.5 397.6 85.3 C 397.6 84.6 397.5 78.3 397.6 59.9 C 397.70000000000005 44.3 397.5 40.599999999999994 397.6 39 C 398.3 24.6 403.6 19.5 425.6 20 C 427 20 469.6 20 469.6 20 L 469.6 20 z M 491 2.1 L 491 129.8 C 491 146.5 484.6 155.4 464.7 155.4 L 390.9 155.4 L 390.9 136.6 L 457.79999999999995 136.6 C 467.9 136.6 469.59999999999997 132.7 469.69999999999993 123.89999999999999 C 469.69999999999993 122.99999999999999 469.69999999999993 119.39999999999999 469.69999999999993 119.39999999999999 L 418.29999999999995 119.39999999999999 C 398.09999999999997 119.39999999999999 391.49999999999994 116.19999999999999 387.49999999999994 113.3 C 381.59999999999997 108.3 375.79999999999995 102.5 375.79999999999995 81.69999999999999 L 375.79999999999995 60.3 L 375.79999999999995 39.3 C 375.9 19.599999999999998 381.09999999999997 13.899999999999999 386.79999999999995 9.299999999999997 C 391.99999999999994 5.099999999999997 399.09999999999997 2.099999999999997 418.19999999999993 2.099999999999997 L 491 2.1 L 491 2.1 z" stroke-linecap="round" />
</g>
		<g transform="matrix(1 0 0 1 -166.35 67.15)"  >
<path style="stroke: none; stroke-width: 1; stroke-dasharray: none; stroke-linecap: butt; stroke-dashoffset: 0; stroke-linejoin: miter; stroke-miterlimit: 4; fill: rgb(255,255,255); fill-rule: nonzero; opacity: 1;" vector-effect="non-scaling-stroke"  transform=" translate(-79.65, -150.3)" d="M 69.1 157.5 L 73 157.5 C 73.1 158.7 73.6 159.7 74.7 160.4 C 75.80000000000001 161.10000000000002 77.2 161.5 79.10000000000001 161.5 C 82.00000000000001 161.5 84.10000000000001 160.9 85.30000000000001 159.7 C 86.60000000000001 158.5 87.20000000000002 156.6 87.20000000000002 154.1 L 87.20000000000002 152.29999999999998 C 85.40000000000002 154.7 82.70000000000002 155.89999999999998 79.30000000000001 155.89999999999998 C 76.10000000000001 155.89999999999998 73.4 154.99999999999997 71.30000000000001 153.2 C 69.30000000000001 151.39999999999998 68.20000000000002 149 68.20000000000002 146.1 C 68.20000000000002 143.2 69.20000000000002 140.9 71.20000000000002 139.1 C 73.20000000000002 137.29999999999998 75.90000000000002 136.4 79.20000000000002 136.4 C 82.40000000000002 136.4 85.10000000000002 137.5 87.40000000000002 139.70000000000002 L 87.60000000000002 137.20000000000002 L 91.10000000000002 137.20000000000002 C 91.00000000000003 139.00000000000003 90.90000000000002 140.20000000000002 90.90000000000002 140.8 L 90.90000000000002 153.70000000000002 C 90.90000000000002 157.50000000000003 89.90000000000002 160.20000000000002 88.00000000000001 161.8 C 86.10000000000001 163.4 83.00000000000001 164.20000000000002 78.90000000000002 164.20000000000002 C 75.70000000000002 164.20000000000002 73.20000000000002 163.70000000000002 71.60000000000002 162.60000000000002 C 70.1 161.4 69.2 159.8 69.1 157.5 z M 85.3 140.7 C 84 139.5 82.1 138.89999999999998 79.8 138.89999999999998 C 77.5 138.89999999999998 75.7 139.49999999999997 74.39999999999999 140.79999999999998 C 73.1 141.99999999999997 72.39999999999999 143.79999999999998 72.39999999999999 145.99999999999997 C 72.39999999999999 148.19999999999996 72.99999999999999 149.99999999999997 74.3 151.29999999999998 C 75.60000000000001 152.6 77.5 153.2 79.89999999999999 153.2 C 82.19999999999999 153.2 84.1 152.6 85.39999999999999 151.29999999999998 C 86.69999999999999 149.99999999999997 87.39999999999999 148.2 87.39999999999999 145.99999999999997 C 87.3 143.7 86.6 141.9 85.3 140.7 z" stroke-linecap="round" />
</g>
		<g transform="matrix(1 0 0 1 -112.55 59.3)"  >
<path style="stroke: none; stroke-width: 1; stroke-dasharray: none; stroke-linecap: butt; stroke-dashoffset: 0; stroke-linejoin: miter; stroke-miterlimit: 4; fill: rgb(255,255,255); fill-rule: nonzero; opacity: 1;" vector-effect="non-scaling-stroke"  transform=" translate(-133.45, -142.45)" d="M 131.6 156.1 L 131.6 128.79999999999998 L 135.29999999999998 128.79999999999998 L 135.29999999999998 156.1 L 131.6 156.1 z" stroke-linecap="round" />
</g>
		<g transform="matrix(1 0 0 1 -59.35 63.45)"  >
<path style="stroke: none; stroke-width: 1; stroke-dasharray: none; stroke-linecap: butt; stroke-dashoffset: 0; stroke-linejoin: miter; stroke-miterlimit: 4; fill: rgb(255,255,255); fill-rule: nonzero; opacity: 1;" vector-effect="non-scaling-stroke"  transform=" translate(-186.65, -146.6)" d="M 174.7 146.7 C 174.7 143.5 175.7 140.89999999999998 177.79999999999998 139.1 C 179.89999999999998 137.3 182.79999999999998 136.4 186.7 136.4 C 190.6 136.4 193.6 137.3 195.6 139.1 C 197.6 140.89999999999998 198.6 143.4 198.6 146.6 C 198.6 150 197.5 152.5 195.5 154.2 C 193.5 155.89999999999998 190.6 156.79999999999998 187 156.79999999999998 C 182.9 156.79999999999998 179.8 155.89999999999998 177.8 154.1 C 175.7 152.3 174.7 149.8 174.7 146.7 z M 178.6 146.6 C 178.6 149 179.29999999999998 150.79999999999998 180.79999999999998 152.2 C 182.29999999999998 153.6 184.2 154.2 186.6 154.2 C 189 154.2 191 153.5 192.4 152.1 C 193.8 150.7 194.5 148.9 194.5 146.5 C 194.5 144.2 193.8 142.4 192.3 141 C 190.8 139.6 188.9 138.9 186.5 138.9 C 184.1 138.9 182.2 139.6 180.7 141 C 179.4 142.4 178.6 144.2 178.6 146.6 z" stroke-linecap="round" />
</g>
		<g transform="matrix(1 0 0 1 2.65 59.65)"  >
<path style="stroke: none; stroke-width: 1; stroke-dasharray: none; stroke-linecap: butt; stroke-dashoffset: 0; stroke-linejoin: miter; stroke-miterlimit: 4; fill: rgb(255,255,255); fill-rule: nonzero; opacity: 1;" vector-effect="non-scaling-stroke"  transform=" translate(-248.65, -142.8)" d="M 237.2 156.1 C 237.29999999999998 154.4 237.39999999999998 152.9 237.39999999999998 151.79999999999998 L 237.39999999999998 128.79999999999998 L 241.09999999999997 128.79999999999998 L 241.09999999999997 139.7 C 242.99999999999997 137.5 245.89999999999998 136.39999999999998 249.59999999999997 136.39999999999998 C 252.59999999999997 136.39999999999998 255.09999999999997 137.39999999999998 257.09999999999997 139.29999999999998 C 259.09999999999997 141.2 260.09999999999997 143.7 260.09999999999997 146.7 C 260.09999999999997 149.6 259.09999999999997 152 256.99999999999994 153.89999999999998 C 254.99999999999994 155.79999999999998 252.39999999999995 156.79999999999998 249.39999999999995 156.79999999999998 C 245.79999999999995 156.79999999999998 242.99999999999994 155.6 240.99999999999994 153.2 L 240.79999999999995 156.1 L 237.2 156.1 L 237.2 156.1 z M 241.1 146.6 C 241.1 148.9 241.79999999999998 150.79999999999998 243.2 152.2 C 244.6 153.6 246.39999999999998 154.2 248.6 154.2 C 250.8 154.2 252.7 153.5 254 152.2 C 255.4 150.79999999999998 256.1 149 256.1 146.6 C 256.1 144.29999999999998 255.40000000000003 142.4 254.00000000000003 141 C 252.60000000000002 139.6 250.80000000000004 138.9 248.60000000000002 138.9 C 246.20000000000002 138.9 244.3 139.6 243.00000000000003 141 C 241.8 142.6 241.1 144.4 241.1 146.6 z" stroke-linecap="round" />
</g>
		<g transform="matrix(1 0 0 1 62.05 63.45)"  >
<path style="stroke: none; stroke-width: 1; stroke-dasharray: none; stroke-linecap: butt; stroke-dashoffset: 0; stroke-linejoin: miter; stroke-miterlimit: 4; fill: rgb(255,255,255); fill-rule: nonzero; opacity: 1;" vector-effect="non-scaling-stroke"  transform=" translate(-308.05, -146.6)" d="M 299.3 142 C 299.5 140.3 300.40000000000003 138.9 302 137.9 C 303.59999999999997 136.9 305.9 136.4 308.9 136.4 C 311.79999999999995 136.4 314 137 315.59999999999997 138.20000000000002 C 317.19999999999993 139.40000000000003 317.9 141.00000000000003 317.9 143.20000000000002 L 317.9 152.50000000000003 C 317.9 154.40000000000003 317.9 155.60000000000002 318.09999999999997 156.10000000000002 L 314.59999999999997 156.10000000000002 C 314.49999999999994 155.50000000000003 314.4 154.60000000000002 314.4 153.3 C 313.79999999999995 154.20000000000002 312.9 155 311.7 155.70000000000002 C 310.5 156.40000000000003 308.59999999999997 156.8 306.2 156.8 C 303.8 156.8 301.8 156.20000000000002 300.3 155.10000000000002 C 298.8 154.00000000000003 298 152.50000000000003 298 150.60000000000002 C 298 148.40000000000003 298.9 146.8 300.6 145.8 C 302.30000000000007 144.8 305.1 144.20000000000002 309.1 144.20000000000002 L 314.3 144.20000000000002 L 314.3 143.50000000000003 C 314.3 140.50000000000003 312.40000000000003 139.00000000000003 308.5 139.00000000000003 C 307 139.00000000000003 305.8 139.30000000000004 304.9 139.90000000000003 C 304 140.50000000000003 303.5 141.20000000000005 303.4 142.10000000000002 L 299.3 142 L 299.3 142 z M 314.1 146.8 L 311.8 146.8 C 307.40000000000003 146.8 304.7 147.10000000000002 303.5 147.70000000000002 C 302.3 148.3 301.8 149.20000000000002 301.8 150.60000000000002 C 301.8 151.50000000000003 302.2 152.40000000000003 303.1 153.20000000000002 C 304 153.9 305.3 154.3 307 154.3 C 309.4 154.3 311.1 153.8 312.3 152.70000000000002 C 313.5 151.60000000000002 314.1 150.00000000000003 314.1 147.8 L 314.1 146.8 L 314.1 146.8 L 314.1 146.8 z" stroke-linecap="round" />
</g>
		<g transform="matrix(1 0 0 1 114.15 59.3)"  >
<path style="stroke: none; stroke-width: 1; stroke-dasharray: none; stroke-linecap: butt; stroke-dashoffset: 0; stroke-linejoin: miter; stroke-miterlimit: 4; fill: rgb(255,255,255); fill-rule: nonzero; opacity: 1;" vector-effect="non-scaling-stroke"  transform=" translate(-360.15, -142.45)" d="M 358.3 156.1 L 358.3 128.79999999999998 L 362 128.79999999999998 L 362 156.1 L 358.3 156.1 z" stroke-linecap="round" />
</g>
</g>
</g>
</svg>